# xmcd
#
# Track frame offsets: 
#        150
#        30307
#        57780
#        82082
#        108022
#        126567
#        138580
#
# Disc length: 2137 seconds
#
# Revision: 2
# Processed by: cddbd v1.5.2PL0 Copyright (c) Steve Scherf et al.
# Submitted via: ExactAudioCopyFreeDBPlugin 1.0
#
DISCID=59085707
DTITLE=Lonnie Liston Smith and The Cosmic Echoes - Renaissance
DYEAR=1977
DGENRE=Jazz+Funk
TTITLE0=Space Lady
TTITLE1=Mardi Gras (Carnival)
TTITLE2=Starlight And You
TTITLE3=Mongotee
TTITLE4=A Song Of Love
TTITLE5=Between Here And There
TTITLE6=Renaissance
EXTD=
EXTT0=
EXTT1=
EXTT2=
EXTT3=
EXTT4=
EXTT5=
EXTT6=
PLAYORDER=
